<?xml version="1.0" standalone="no"?>
<!DOCTYPE svg PUBLIC "-//W3C//DTD SVG 20010904//EN"
 "http://www.w3.org/TR/2001/REC-SVG-20010904/DTD/svg10.dtd">
<svg version="1.0" xmlns="http://www.w3.org/2000/svg"
 width="1280.000000pt" height="1238.000000pt" viewBox="0 0 1280.000000 1238.000000"
 preserveAspectRatio="xMidYMid meet">
<metadata>
Created by potrace 1.15, written by Peter Selinger 2001-2017
</metadata>
<g transform="translate(0.000000,1238.000000) scale(0.100000,-0.100000)"
fill="#000000" stroke="none">
<path d="M1960 12368 c-329 -27 -672 -128 -936 -275 -264 -146 -544 -404 -704
-649 -117 -178 -216 -427 -264 -664 -42 -207 -51 -317 -50 -590 0 -310 20
-491 74 -705 261 -1021 962 -1935 1885 -2460 348 -198 630 -304 935 -351 175
-27 520 -25 705 4 407 64 826 220 1184 442 l85 53 90 -5 c134 -8 246 -60 416
-197 103 -83 390 -352 690 -646 152 -148 505 -490 785 -759 1416 -1360 1920
-1866 2145 -2156 388 -500 957 -1148 1482 -1690 247 -254 1043 -1035 1074
-1053 7 -4 67 -74 133 -155 246 -305 414 -444 596 -497 202 -59 425 79 496
306 24 76 24 131 1 206 -46 147 -163 265 -482 489 -173 121 -250 180 -525 403
-400 325 -715 603 -1173 1038 -279 264 -485 432 -907 741 -378 276 -674 502
-745 567 -132 122 -848 812 -1265 1219 -627 613 -1249 1232 -1819 1812 -476
482 -505 514 -541 588 -33 66 -39 87 -38 139 1 84 26 144 134 327 51 85 112
198 137 250 95 202 159 448 183 703 15 161 7 513 -15 657 -81 523 -283 995
-608 1422 -263 346 -549 603 -1023 918 -333 222 -632 355 -1045 466 -359 96
-738 132 -1090 102z m710 -193 c232 -36 485 -109 710 -205 328 -141 398 -181
860 -491 l235 -157 161 -174 c518 -555 624 -716 783 -1183 54 -160 98 -340
123 -505 30 -190 29 -487 0 -651 -76 -419 -185 -702 -360 -934 -53 -70 -212
-229 -264 -264 -19 -13 -47 -43 -62 -66 -75 -119 -254 -272 -445 -380 -375
-212 -882 -349 -1236 -332 -197 9 -446 63 -645 141 -411 159 -639 286 -860
476 -36 30 -85 71 -110 90 -111 84 -235 199 -327 303 -55 62 -162 182 -238
267 -228 256 -470 644 -613 980 -72 170 -141 454 -178 730 -35 267 -14 711 46
944 41 162 119 331 266 576 79 134 108 172 192 256 240 241 464 379 787 485
143 47 393 98 555 113 105 9 519 -3 620 -19z m2495 -4585 c3 -5 17 -66 30
-135 13 -69 35 -150 48 -179 l24 -53 -59 24 c-32 13 -114 35 -181 49 -67 13
-133 29 -146 35 -22 9 -23 12 -9 25 9 9 49 32 89 52 66 33 77 43 109 98 19 34
41 69 49 78 15 18 37 21 46 6z"/>
</g>
</svg>
